<svg xmlns="http://www.w3.org/2000/svg" viewBox="0 0 205.25 34.59"><defs><style>.cls-1{fill:#00679f;}.cls-2{fill:none;}</style></defs><g id="Layer_2" data-name="Layer 2"><g id="Art"><path class="cls-1" d="M53.3,27.57h-.21c-.22-1.09-.57-2.13-1.89-2.13a1.48,1.48,0,0,0-1.57,1.47c0,2.32,4.22,2.24,4.22,4.94,0,1.73-1.71,2.63-3.25,2.63a4.45,4.45,0,0,1-2.36-.69l-.39-2.27h.24a3,3,0,0,0,2.71,2.55,1.61,1.61,0,0,0,1.76-1.63c0-2.38-4.09-2.17-4.09-4.85a2.82,2.82,0,0,1,3-2.55,4.15,4.15,0,0,1,2,.52Z"/><path class="cls-1" d="M64.67,25.85h.09l.17,2.23-.17,0c-.42-1.47-1.07-1.53-2.44-1.53h-.71v5.5c0,1.47.07,1.87,1.66,2.06v.17H58.89v-.17c1.6-.19,1.67-.59,1.67-2.06v-5.5h-.71c-1.37,0-2,.06-2.44,1.53l-.17,0,.17-2.23h.09l.12.11a.77.77,0,0,0,.74.26h5.45a.77.77,0,0,0,.74-.26Z"/><path class="cls-1" d="M69.21,30.92a11.55,11.55,0,0,0-.72,2.41c0,.72.82.72,1.35.81v.17H66.58v-.17c1.06-.29,1.17-.53,1.54-1.46l1.34-3.51.72-1.94c.1-.31.26-.59.13-.82a2.21,2.21,0,0,0,.87-.64l2.61,7c.32.87.53,1.22,1.48,1.4v.17h-3.5v-.17c.42-.1.92-.23.92-.77a11.21,11.21,0,0,0-.77-2.45Zm1.32-3.64-1.12,3.1h2.36Z"/><path class="cls-1" d="M84.35,25.85h.1l.16,2.23-.16,0C84,26.64,83.37,26.58,82,26.58h-.72v5.5c0,1.47.07,1.87,1.67,2.06v.17H78.58v-.17c1.59-.19,1.66-.59,1.66-2.06v-5.5h-.71c-1.37,0-2,.06-2.44,1.53l-.17,0,.17-2.23h.1l.11.11a.77.77,0,0,0,.74.26h5.45a.77.77,0,0,0,.74-.26Z"/><path class="cls-1" d="M87.44,34.14c1.43-.19,1.44-.55,1.48-1.78V28.17c0-1.22,0-1.58-1.48-1.77v-.18h6.4l-.15,1.83h-.18c-.08-1.53-1.19-1.54-2.39-1.54H90V29.9H91.2c.9,0,1.58-.07,1.71-1.1h.18v2.66h-.18c-.16-1.05-.81-1.06-1.71-1.06H90v2c0,.7-.17,1.68,1.78,1.68A2.22,2.22,0,0,0,94.29,32h.18a7.64,7.64,0,0,1-.41,2.35H87.44Z"/><path class="cls-1" d="M113.75,25.21v.2c-1.22.13-1.3.88-1.35,2.65L112.32,31c0,1.73-.78,3.49-3.75,3.49-4.15,0-3.72-3-3.72-4.07v-3c0-1.38-.06-1.78-1.66-2v-.2h4.62v.2c-1.76.26-1.79.52-1.79,2v2.74c0,.26-.42,3.71,3.24,3.71,2.9,0,2.62-2.76,2.62-4.39V28.06c0-1.7-.14-2.48-2-2.65v-.2Z"/><path class="cls-1" d="M124.61,32.45l-.06-4.35c0-1.13-.32-1.46-1.67-1.7v-.18h3.25v.18c-.82.11-1,.56-1.07,1.33a62.73,62.73,0,0,0,0,6.78l-.15,0c-1.91-2.25-4-4.33-6-6.5v2.19c0,2.95-.07,3.56,1.66,3.91v.17h-3.56v-.17c1.61-.17,1.55-1.27,1.55-4V28.39c0-1.19-.19-1.66-1.7-2v-.18h2Z"/><path class="cls-1" d="M131.5,32.36c0,1.23.05,1.59,1.48,1.78v.17h-4v-.17c1.42-.19,1.44-.55,1.47-1.78V28.17c0-1.22,0-1.58-1.47-1.77v-.18h4v.18c-1.43.19-1.45.55-1.48,1.77Z"/><path class="cls-1" d="M144.32,26.22v.18c-1.12.1-1.47,1-2.2,2.76l-2.28,5.43h-.16L137,28.15c-.36-.87-.63-1.63-1.69-1.75v-.18h3.77v.18c-1.68.17-1.13,1.12-.82,1.87l1.9,4.59,1.41-3.37c1-2.44,1.21-2.83-.6-3.09v-.18Z"/><path class="cls-1" d="M146.58,34.14c1.43-.19,1.44-.55,1.47-1.78V28.17c0-1.22,0-1.58-1.47-1.77v-.18H153l-.14,1.83h-.18c-.09-1.53-1.19-1.54-2.39-1.54H149.1V29.9h1.24c.89,0,1.57-.07,1.7-1.1h.18v2.66H152c-.15-1.05-.81-1.06-1.7-1.06H149.1v2c0,.7-.17,1.68,1.79,1.68A2.21,2.21,0,0,0,153.42,32h.18a7.64,7.64,0,0,1-.4,2.35h-6.62Z"/><path class="cls-1" d="M158.16,28.67c0-1.82-.06-2.09-1.39-2.21v-.17l2.9-.09c3-.1,3.24,1.37,3.24,1.94a2.08,2.08,0,0,1-1.48,1.95l.06.08c.92,1.61,2.06,3.66,4,4.06l0,.18c-1.26-.06-2.19,0-2.88-.74a10.4,10.4,0,0,1-1.66-2.38c-.47-1-.9-.7-1.73-.84v1.91c0,1.31,0,1.55,1.65,1.78v.17h-4.18v-.17c1.43-.19,1.44-.55,1.48-1.78Zm1.05,1.57c1.14,0,2.47-.53,2.47-1.85s-1.23-1.95-2.47-1.94Z"/><path class="cls-1" d="M172.05,28.32h-.19c-.19-1-.5-1.9-1.68-1.9a1.32,1.32,0,0,0-1.39,1.31c0,2.06,3.74,2,3.74,4.4,0,1.53-1.52,2.33-2.89,2.33a4,4,0,0,1-2.09-.61l-.35-2h.22a2.67,2.67,0,0,0,2.4,2.27,1.43,1.43,0,0,0,1.57-1.45c0-2.12-3.64-1.93-3.64-4.31a2.51,2.51,0,0,1,2.65-2.27,3.73,3.73,0,0,1,1.74.46Z"/><path class="cls-1" d="M178.27,32.36c0,1.23,0,1.59,1.48,1.78v.17h-4v-.17c1.43-.19,1.44-.55,1.47-1.78V28.17c0-1.22,0-1.58-1.47-1.77v-.18h4v.18c-1.43.19-1.44.55-1.48,1.77Z"/><path class="cls-1" d="M190,25.85h.09l.17,2.23-.17,0c-.41-1.47-1.07-1.53-2.44-1.53H187v5.5c0,1.47.07,1.87,1.67,2.06v.17h-4.38v-.17c1.59-.19,1.66-.59,1.66-2.06v-5.5h-.71c-1.37,0-2,.06-2.44,1.53l-.17,0,.17-2.23h.09L183,26a.77.77,0,0,0,.74.26h5.45a.77.77,0,0,0,.74-.26Z"/><path class="cls-1" d="M200.21,26.22v.18a2.46,2.46,0,0,0-2.05,1.51l-1.41,2.79V32c0,1.37.05,1.86,1.57,2.1v.17h-4.18v-.17c1.52-.24,1.54-.73,1.57-2.1v-.95l-1.24-2.7c-.45-1-.78-1.85-2-2v-.18h3.29v.18c-1,.13-.85.52-.47,1.36l1.19,2.57,1-2c.74-1.38.64-1.83-.39-2v-.18Z"/><line class="cls-2" x1="46.95" y1="22.4" x2="200.46" y2="22.4"/><rect class="cls-1" x="46.95" y="22.15" width="153.51" height="0.5"/><path class="cls-1" d="M31.55,30.23v-.37c1.72-.6,2.75-1.37,2.75-2.2s-.92-1.54-2.47-2.16c1.55-.36,2.47-.82,2.47-1.32s-1-1-2.75-1.45V12.12c1.72-.42,2.75-.93,2.75-1.46s-1-1-2.75-1.38v-.5c1.72-.64,2.75-1.44,2.75-2.27s-1-1.6-2.75-2.2V3a12.86,12.86,0,0,1,2.93.35A.73.73,0,0,0,34.57,3C34.57,1.36,29,0,22,0S9.48,1.36,9.48,3a.73.73,0,0,0,.09.35c.29-.06.57-.12.84-.16,1.65-1.16,6.17-2,11.51-2V26.17h.2v5.88c-5.3,0-9.81-.82-11.48-2-.35,0-.7-.12-1.07-.2a.76.76,0,0,0-.09.35c0,1.68,5.62,3,12.55,3s12.54-1.35,12.54-3a.76.76,0,0,0-.09-.35A12.32,12.32,0,0,1,31.55,30.23Zm0-25c1,.47,1.51,1,1.51,1.58s-.55,1.12-1.51,1.58Zm0,4.64c1,.29,1.51.63,1.51,1s-.55.7-1.51,1Zm0,13.17c1,.3,1.51.64,1.51,1s-.55.7-1.51,1Zm0,2.8c1,.46,1.51,1,1.51,1.58S32.51,28.5,31.55,29ZM22.75,8.87h.44v1h-.44Zm0,13.18h1a3.34,3.34,0,0,1-.52,2h-.45Zm.44,5.17h-.44v-.84h.44Zm0-1.25h-.44v-1.7h.44v.59c.25-.17.51-.36.76-.56l.76.05c-.46.33-1,.66-1.52,1Zm1.07-1.9a6.35,6.35,0,0,0,1.62-1.91l.72.06A4.76,4.76,0,0,1,25,24.12Zm5.83,5.45c-.29.09-.59.17-.92.25a2.81,2.81,0,0,1-1.64-1.93,3.4,3.4,0,0,1-.07-.34c-1.23-.14-2.57-.23-4-.27.63-.29,1.32-.59,2-.94,1.72-.09,3.28-.25,4.59-.45Zm0-4.17a33.54,33.54,0,0,1-3.71.47l.75-.43a5.82,5.82,0,0,0,.86-.63,18.6,18.6,0,0,1,2.1.5Zm0-.41c-.57-.16-1.2-.29-1.86-.41a2.06,2.06,0,0,0,.62-2.07c.44.07.86.13,1.24.21Zm0-2.51-1.32-.2a5.36,5.36,0,0,0-2.09-2.16,3.33,3.33,0,0,1,0,1.93L26,22a2.37,2.37,0,0,0-.11-2.19c-1.78-3.13-1.21-4.5.49-5.48a7.08,7.08,0,0,0-3.17,1.36v4.93a3,3,0,0,1,.51,1.26l-.95,0V13h.44v2a3.45,3.45,0,0,0,1.29-2,45,45,0,0,0,5.61-.57Zm0-10.25a38.41,38.41,0,0,1-5.57.57,5.37,5.37,0,0,0-.33-2.59,3.62,3.62,0,0,1-1,2.63h-.44V10.16h.44v2a4.14,4.14,0,0,0,.57-2,31.42,31.42,0,0,0,5.72-.75l.61.11Zm-6.57-3.3a49.31,49.31,0,0,1,5.19.39,29.8,29.8,0,0,1-5,.6A3.37,3.37,0,0,0,23.52,8.88Zm6.57,0L29.87,9a53,53,0,0,0-6.55-.5l0-.05a1.62,1.62,0,0,1-.1-.18v.23h-.44V6.05a45.1,45.1,0,0,0,4.71-.29,3.4,3.4,0,0,1,.07-.34,2.67,2.67,0,0,1,.66-1.23,18.31,18.31,0,0,1,1.9.46Zm0-5c-.37-.1-.76-.18-1.17-.26a4.06,4.06,0,0,1,1.17-.44Z"/><path class="cls-1" d="M10.64,7.83A1.17,1.17,0,0,1,10.21,7c0-.78,1.16-1.49,3-2V4.2a8.51,8.51,0,0,0-1,0v.23C10.68,5,9.75,5.72,9.75,6.51A1.76,1.76,0,0,0,10.64,7.83Z"/><path class="cls-1" d="M13.26,5.71a6.11,6.11,0,0,0-1,.48v2c-.18-.11-.35-.21-.5-.32a4.13,4.13,0,0,0,1.52.88Z"/><path class="cls-1" d="M13.26,24.78V22.67a3.59,3.59,0,0,0-1.7.72,5,5,0,0,1,.68-.29v1.34A8.08,8.08,0,0,0,13.26,24.78Z"/><path class="cls-1" d="M21.21,24.13h-.67v.12a14,14,0,0,1-1.66,1A7.75,7.75,0,0,0,20,24.16l-.6,0a15.23,15.23,0,0,1-1.28,1.28l1,.06,1.41-.81v.86h.67Z"/><path class="cls-1" d="M14.67,22.19c.67-.1,1.4-.18,2.18-.25-4.94-4.68.59-7.43.59-7.43-3.09,3.34,2,5,3,6.68a1.19,1.19,0,0,1,.08.16v.4h.67V13.29h-.67V14.4l-.12.09a3.22,3.22,0,0,0-.84,4.39c-2-1.18-2.83-3.32-.27-5.45l.21-.18c-1.8-.07-3.45-.21-4.85-.4ZM20.54,15V20l-.07-.09C18.91,17.46,19.48,16,20.54,15Z"/><path class="cls-1" d="M10,11.12c.06-.55,1.28-1,3.25-1.42V9.13a10,10,0,0,1-1-.36v.57c-1.56.37-2.49.83-2.49,1.32A.63.63,0,0,0,10,11.12Z"/><path class="cls-1" d="M20.54,9.94l.67,0V9.42l-.67,0Z"/><path class="cls-1" d="M21.21,7.1l-.94,0a4.16,4.16,0,0,0,.27.57v1.4h.67Z"/><path class="cls-1" d="M14.67,28.86a2.91,2.91,0,0,0,2.12-2.07l.06-.33.9-.09a4.18,4.18,0,0,1,.38-.25l.38-.22c-1.42-.08-2.72-.2-3.84-.36Z"/><path class="cls-1" d="M14.67,25.08a33.2,33.2,0,0,0,3.37.39,2.16,2.16,0,0,0,.53-1.21,23.72,23.72,0,0,0-3.9.61Z"/><path class="cls-1" d="M14.67,24.58A29.78,29.78,0,0,1,18.56,24a2.07,2.07,0,0,0-.88-1.34c-.22-.17-.42-.35-.61-.52-.89.07-1.69.16-2.4.26Z"/><path class="cls-1" d="M21.21,22h-.67v.39a5,5,0,0,1-.91,1.56l.59,0a5.53,5.53,0,0,0,.32-.46v.45l.67,0Z"/><path class="cls-1" d="M20.54,26.2l.67,0V26l-.67,0Z"/><path class="cls-1" d="M13.26,10.21a9.93,9.93,0,0,0-1,.3v1.24a3.23,3.23,0,0,1-1-.51.29.29,0,0,0,0,.09c0,.22.2.41.57.59l.46.13v.06a8.12,8.12,0,0,0,1,.28Z"/><path class="cls-1" d="M12,25.44l.67-.27c-1.53-.36-2.44-.82-2.44-1.31a.6.6,0,0,1,.25-.43c-.46.24-.71.5-.71.75C9.75,24.65,10.58,25.09,12,25.44Z"/><path class="cls-1" d="M13.26,12.62c-.37-.07-.71-.14-1-.22V22.66c.31-.08.65-.16,1-.23Z"/><path class="cls-1" d="M13.26,28.67V25.31a3.89,3.89,0,0,0-1.57,1,4,4,0,0,1,.55-.35v2.2A6.84,6.84,0,0,0,13.26,28.67Z"/><path class="cls-1" d="M18.24,7c-.55,0-1.09-.09-1.6-.15l-.06-.33a2.69,2.69,0,0,0-.9-1.43l-1,.22V9.22c.23.06.48.11.74.16,1.19-.14,2.53-.24,4-.29a4,4,0,0,0-.46-.7A4.14,4.14,0,0,1,18.24,7Z"/><path class="cls-1" d="M19.56,9.47c-.93,0-1.82.09-2.64.17.87.12,1.8.21,2.8.27A3.72,3.72,0,0,0,19.56,9.47Z"/><path class="cls-1" d="M14.67,12.64a47.78,47.78,0,0,0,5.08.39,7.52,7.52,0,0,0,.79-.85v.87h.67V10.21l-.67,0V11.5a5.6,5.6,0,0,1-.89,1.19,4.48,4.48,0,0,0,.14-2.53,34.74,34.74,0,0,1-3.85-.41c-.45.05-.88.11-1.27.18Z"/><path class="cls-1" d="M10.51,28.86a11.57,11.57,0,0,0,1.66.23c-1.23-.53-2-1.17-2-1.85a1.33,1.33,0,0,1,.41-.89,1.75,1.75,0,0,0-.87,1.31A1.57,1.57,0,0,0,10.51,28.86Z"/><path class="cls-1" d="M.23,25.23a21.64,21.64,0,0,0,1.53,8H0v1.17H3.88l-.42-1.17h0A20.2,20.2,0,0,1,9.21,9.58v-2A21.75,21.75,0,0,0,.23,25.23Z"/><path class="cls-1" d="M42.29,33.22a21.72,21.72,0,0,0-7.45-25.6v2a20.2,20.2,0,0,1,5.77,23.64h0l-.48,1.17H43.7V33.22Z"/><path class="cls-1" d="M59,6v6.25h-.39c-.2-2.59-1.53-2.54-3.68-2.54H52.1v3.87c0,2.73.13,3.27,3.68,3.81v.38h-9.1v-.38c3.07-.41,3.09-1.18,3.17-3.81v-9c-.08-2.63-.1-3.4-3.17-3.81V.34H61.92l-.41,4.05h-.39C61,1.09,58.82,1,56.13,1h-4V8.61h2.79C57,8.61,58.37,8.4,58.57,6Z"/><path class="cls-1" d="M63.32,11.26c-.39,1.14-1.39,3.5-1.39,4.6,0,1.38,1.57,1.38,2.59,1.54v.34H58.29V17.4c2-.54,2.23-1,2.93-2.77l2.57-6.71,1.37-3.71c.2-.59.5-1.13.25-1.57a4.31,4.31,0,0,0,1.66-1.23l5,13.33c.62,1.66,1,2.32,2.82,2.66v.34H68.21V17.4C69,17.22,70,17,70,16a21.16,21.16,0,0,0-1.46-4.69Zm2.52-7L63.7,10.22h4.51Z"/><path class="cls-1" d="M85.83,2.28v.34c-2,.16-3,1.25-3.91,2.89l-2.68,5.32V13.4c0,2.62.09,3.55,3,4v.34h-8V17.4c2.91-.45,3-1.38,3-4V11.58L74.87,6.42c-.86-1.91-1.48-3.53-3.78-3.8V2.28h6.28v.34c-1.86.25-1.61,1-.88,2.59l2.27,4.92,2-3.76C82.15,3.73,82,2.87,80,2.62V2.28Z"/><path class="cls-1" d="M84.22,17.4C87,17,87,16.36,87,14V6C87,3.67,87,3,84.22,2.62V2.28H96.43l-.27,3.5h-.34c-.16-2.93-2.28-2.95-4.57-2.95H89V9.31H91.4c1.71,0,3-.14,3.26-2.09H95v5.06h-.34c-.3-2-1.55-2-3.26-2H89V14c0,1.34-.32,3.21,3.41,3.21,2.87,0,4.28-1.09,4.85-4h.34a14.34,14.34,0,0,1-.78,4.5H84.22Z"/><path class="cls-1" d="M124.45,17.4c2.73-.36,2.75-1,2.82-3.39V6c-.07-2.34-.09-3-2.82-3.39V2.28h11.07l-.27,3.5h-.34c-.16-2.93-2.28-2.95-4.57-2.95h-1.07V9.31h2.36c1.71,0,3-.14,3.26-2.09h.34v5.06h-.34c-.3-2-1.55-2-3.26-2h-2.36V14c0,1.34-.32,3.21,3.41,3.21,2.87,0,4.28-1.09,4.84-4h.34a14.07,14.07,0,0,1-.77,4.5H124.45Z"/><path class="cls-1" d="M153.1,2.28v.34c-2.13.18-2.79,2-4.2,5.28l-4.35,10.37h-.32L139.1,6c-.69-1.66-1.21-3.11-3.23-3.34V2.28h7.21v.34c-3.21.32-2.16,2.14-1.57,3.57L145.14,15l2.69-6.44c1.95-4.66,2.32-5.41-1.14-5.91V2.28Z"/><path class="cls-1" d="M157.38,14c.07,2.35.09,3,2.82,3.39v.34h-7.64V17.4c2.73-.36,2.75-1,2.82-3.39V6c-.07-2.34-.09-3-2.82-3.39V2.28h7.64v.34c-2.73.36-2.75,1-2.82,3.39Z"/><path class="cls-1" d="M161.07,17.4c2.73-.36,2.75-1,2.82-3.39V6c-.07-2.34-.09-3-2.82-3.39V2.28h7.64v.34c-2.73.36-2.82,1-2.82,3.39v7.46a11.63,11.63,0,0,0,.34,3.43l2.21.21c3.45.25,2.88-.82,4.63-3.73l.3.13-.73,4.23H161.07Z"/><path class="cls-1" d="M173.35,17.4c2.73-.36,2.75-1,2.82-3.39V6c-.07-2.34-.09-3-2.82-3.39V2.28H181v.34c-2.73.36-2.82,1-2.82,3.39v7.46a11.63,11.63,0,0,0,.34,3.43l2.21.21c3.45.25,2.89-.82,4.64-3.73l.29.13-.73,4.23H173.35Z"/><path class="cls-1" d="M185.6,17.4c2.73-.36,2.76-1,2.82-3.39V6c-.06-2.34-.09-3-2.82-3.39V2.28H199l.3,3.5h-.34c-.16-2.93-2.85-2.95-5.14-2.95h-3.35V9.31h2.37c1.7,0,3-.14,3.25-2.09h.34v5.06H196c-.29-2-1.55-2-3.25-2h-2.37V14c0,1.34-.31,3.21,3.42,3.21,2.86,0,4.27-1.09,4.84-4H199a14.35,14.35,0,0,1-.77,4.5H185.6Z"/><path class="cls-1" d="M107.49,2.28h-2.31c-3.34.2-6.87.37-7-.71h-.07l-.32,4.26.32.07c.8-2.82,2-2.94,4.66-2.94h.8V13.47c0,2.82-.14,3.57-3.18,3.93v.34h8.37V17.4c-3-.36-3.19-1.11-3.19-3.93V3h.8c2.61,0,3.3.12,4.09,2.94l.32-.07V3.57C110.61,2.92,109.45,2.42,107.49,2.28Z"/><path class="cls-1" d="M123.57,1.57h-.1c-.15,1.08-4,1.07-7.3.87-3.18-.19-4.94.22-5.26,1V5.83l.31.07C112,3.08,112.7,3,115.32,3h.79V13.47c0,2.82-.13,3.57-3.18,3.93v.34h8.37V17.4c-3-.36-3.19-1.11-3.19-3.93V3h.8c2.62,0,3.87.12,4.66,2.94l.32-.07Z"/><path class="cls-1" d="M202.21,23.17h-.6V23h1.46v.22h-.6v1.75h-.26Z"/><path class="cls-1" d="M205,24.06c0-.28,0-.61,0-.85h0c-.07.22-.15.47-.25.74l-.34,1h-.2L203.8,24c-.09-.28-.17-.53-.22-.76h0c0,.24,0,.57,0,.87l-.05.84h-.24l.14-2h.32l.34.95c.08.25.14.46.19.67h0c0-.2.12-.42.21-.67l.35-.95h.33l.12,2H205Z"/></g></g></svg>